HIERARCHY
ROOT joint_Root
{
	OFFSET 0.0 0.0 0.0
	CHANNELS 6 Xposition Yposition Zposition Zrotation Xrotation Yrotation 
	JOINT Hips
	{
		OFFSET 4.5925 91.4895 -427.239
		CHANNELS 6 Xposition Yposition Zposition Zrotation Xrotation Yrotation 
		JOINT Spine
		{
			OFFSET 15.7357 0.0 0.0
			CHANNELS 6 Xposition Yposition Zposition Zrotation Xrotation Yrotation 
			JOINT Chest
			{
				OFFSET 8.98455 -0.406207 0.0
				CHANNELS 6 Xposition Yposition Zposition Zrotation Xrotation Yrotation 
				JOINT Neck
				{
					OFFSET 16.3773 0.0 0.0
					CHANNELS 6 Xposition Yposition Zposition Zrotation Xrotation Yrotation 
					JOINT Head
					{
						OFFSET 6.45672 0.0 0.0
						CHANNELS 6 Xposition Yposition Zposition Zrotation Xrotation Yrotation 
						End Site
						{
							OFFSET 0.0 0.0 0.0
						}
					}
				}
				JOINT Shoulder_L
				{
					OFFSET 12.9942 -0.242716 4.98039
					CHANNELS 6 Xposition Yposition Zposition Zrotation Xrotation Yrotation 
					JOINT UpperArm_L
					{
						OFFSET 5.34809 0.0 0.0
						CHANNELS 6 Xposition Yposition Zposition Zrotation Xrotation Yrotation 
						JOINT LowerArm_L
						{
							OFFSET 24.3286 1.87007e-05 0.0
							CHANNELS 6 Xposition Yposition Zposition Zrotation Xrotation Yrotation 
							JOINT Hand_L
							{
								OFFSET 22.2916 0.0 0.0
								CHANNELS 6 Xposition Yposition Zposition Zrotation Xrotation Yrotation 
								End Site
								{
									OFFSET 0.0 0.0 0.0
								}
							}
						}
					}
				}
				JOINT Shoulder_R
				{
					OFFSET 12.9945 -0.242716 -4.98039
					CHANNELS 6 Xposition Yposition Zposition Zrotation Xrotation Yrotation 
					JOINT UpperArm_R
					{
						OFFSET -5.34813 0.0 0.0
						CHANNELS 6 Xposition Yposition Zposition Zrotation Xrotation Yrotation 
						JOINT LowerArm_R
						{
							OFFSET -24.3289 0.000322201 0.0
							CHANNELS 6 Xposition Yposition Zposition Zrotation Xrotation Yrotation 
							JOINT Hand_R
							{
								OFFSET -22.2915 -0.000108084 0.0
								CHANNELS 6 Xposition Yposition Zposition Zrotation Xrotation Yrotation 
								End Site
								{
									OFFSET 0.0 0.0 0.0
								}
							}
						}
					}
				}
			}
		}
		JOINT UpperLeg_L
		{
			OFFSET -2.19248 -6.46944 0.0
			CHANNELS 6 Xposition Yposition Zposition Zrotation Xrotation Yrotation 
			JOINT LowerLeg_L
			{
				OFFSET 39.0811 0.0 -1.23785e-05
				CHANNELS 6 Xposition Yposition Zposition Zrotation Xrotation Yrotation 
				JOINT Foot_L
				{
					OFFSET 40.9854 0.0 -1.26872e-05
					CHANNELS 6 Xposition Yposition Zposition Zrotation Xrotation Yrotation 
					JOINT Toes_L
					{
						OFFSET 11.7543 0.0 0.0
						CHANNELS 6 Xposition Yposition Zposition Zrotation Xrotation Yrotation 
						End Site
						{
							OFFSET 0.0 0.0 0.0
						}
					}
				}
			}
		}
		JOINT UpperLeg_R
		{
			OFFSET -2.19251 6.46944 0.0
			CHANNELS 6 Xposition Yposition Zposition Zrotation Xrotation Yrotation 
			JOINT LowerLeg_R
			{
				OFFSET -39.0811 -0.00228153 -0.0401928
				CHANNELS 6 Xposition Yposition Zposition Zrotation Xrotation Yrotation 
				JOINT Foot_R
				{
					OFFSET -40.9854 0.0 0.0
					CHANNELS 6 Xposition Yposition Zposition Zrotation Xrotation Yrotation 
					JOINT Toes_R
					{
						OFFSET -11.7543 0.0 0.0
						CHANNELS 6 Xposition Yposition Zposition Zrotation Xrotation Yrotation 
						End Site
						{
							OFFSET 0.0 0.0 0.0
						}
					}
				}
			}
		}
	}
}
MOTION
Frames:	7
Frame Time:	0.0333333
0.000000 0.000000 0.000000 0.000000 0.000000 -0.000000 -0.625033 90.507900 -6.519870 89.362700 -3.499470 12.414500 15.735700 0.000005 -0.000001 89.104700 75.240300 -89.167000 8.984550 -0.406207 -0.000000 21.749900 -0.456711 -0.037308 16.377300 -0.000001 -0.000001 10.901500 -4.457490 0.696476 6.456720 -0.000001 -0.000000 -10.276600 -3.982800 -0.466659 12.994200 -0.242716 4.980390 -89.780200 -0.763720 -73.944500 5.348090 -0.000007 -0.000001 -74.384400 -22.775300 -83.442000 24.328600 0.000019 0.000005 43.578900 -12.309500 -102.628000 22.291600 -0.000001 0.000005 9.843150 4.915210 9.073090 12.994500 -0.242716 -4.980390 89.246100 8.507980 -84.917500 -5.348130 -0.000001 -0.000004 -54.618100 34.886300 -28.052800 -24.328900 0.000322 -0.000009 1.518380 3.746950 -22.092100 -22.291500 -0.000108 -0.000004 17.050800 5.414360 -3.409960 -2.192480 -6.469440 -0.000000 -174.514000 -11.384000 -3.489210 39.081100 -0.000007 -0.000012 -0.154634 0.231241 33.771600 40.985400 -0.000006 -0.000013 0.575590 6.135110 -67.715200 11.754300 -0.000000 0.000003 -0.000054 -0.000605 -16.601000 -2.192510 6.469440 -0.000001 174.994000 19.630800 177.510000 -39.081100 -0.002282 -0.040193 -0.155187 0.242253 33.192900 -40.985400 0.000008 0.000006 4.109450 13.450700 -68.198900 -11.754300 -0.000006 -0.000006 -0.003909 -0.050488 -18.626800
0.000000 0.000000 0.000000 0.000000 0.000000 -0.000000 -0.611434 90.518800 -6.509330 89.334500 -3.549770 12.397900 15.735700 0.000005 -0.000001 89.136500 75.243900 -89.195500 8.984550 -0.406207 -0.000000 21.743000 -0.440266 -0.033979 16.377300 -0.000001 -0.000001 10.876200 -4.460590 0.628785 6.456720 -0.000001 -0.000000 -10.178400 -3.998720 -0.541001 12.994200 -0.242716 4.980390 -89.788900 -0.733303 -73.937700 5.348090 -0.000007 -0.000001 -74.299800 -22.828300 -83.487000 24.328600 0.000019 0.000005 43.527200 -12.292900 -102.634000 22.291600 -0.000001 0.000005 9.871550 4.914030 9.096860 12.994500 -0.242716 -4.980390 89.248200 8.486850 -84.918800 -5.348130 -0.000001 -0.000004 -54.669800 34.881100 -28.022800 -24.328900 0.000322 -0.000009 1.504020 3.708410 -22.108500 -22.291500 -0.000108 -0.000004 17.016100 5.414390 -3.411060 -2.192480 -6.469440 -0.000000 -174.491000 -11.406800 -3.479080 39.081100 -0.000007 -0.000012 -0.153718 0.230182 33.735700 40.985400 -0.000006 -0.000013 0.576008 6.117920 -67.702900 11.754300 -0.000000 0.000003 -0.000054 -0.000605 -16.601000 -2.192510 6.469440 -0.000001 175.018000 19.608100 177.529000 -39.081100 -0.002282 -0.040193 -0.156340 0.244677 33.121900 -40.985400 0.000008 0.000006 4.098710 13.492300 -68.162500 -11.754300 -0.000006 -0.000006 -0.003616 -0.047382 -18.500300
0.000000 0.000000 0.000000 0.000000 0.000000 -0.000000 -0.598441 90.516400 -6.502710 89.325000 -3.617020 12.376300 15.735700 0.000005 -0.000001 89.159000 75.250200 -89.229500 8.984550 -0.406207 -0.000000 21.730600 -0.430169 -0.058945 16.377300 -0.000001 -0.000001 10.898100 -4.440760 0.579916 6.456720 -0.000001 -0.000000 -10.160500 -3.942420 -0.599241 12.994200 -0.242716 4.980390 -89.782800 -0.752859 -73.908700 5.348090 -0.000007 -0.000001 -74.303300 -22.821400 -83.478100 24.328600 0.000019 0.000005 43.440700 -12.324800 -102.702000 22.291600 -0.000001 0.000005 9.948240 4.916690 9.043240 12.994500 -0.242716 -4.980390 89.248500 8.499040 -84.928300 -5.348130 -0.000001 -0.000004 -54.645000 34.943600 -28.026800 -24.328900 0.000322 -0.000009 1.503500 3.706120 -22.113900 -22.291500 -0.000108 -0.000004 17.041700 5.414000 -3.398040 -2.192480 -6.469440 -0.000000 -174.483000 -11.454800 -3.493930 39.081100 -0.000007 -0.000012 -0.154835 0.231688 33.754800 40.985400 -0.000006 -0.000013 0.576872 6.082250 -67.724100 11.754300 -0.000000 0.000003 -0.000055 -0.000612 -16.601300 -2.192510 6.469440 -0.000001 175.030000 19.610000 177.502000 -39.081100 -0.002282 -0.040193 -0.153829 0.240760 33.129300 -40.985400 0.000008 0.000006 4.103260 13.525200 -68.164900 -11.754300 -0.000006 -0.000006 -0.003975 -0.051185 -18.655100
0.000000 0.000000 0.000000 0.000000 0.000000 -0.000000 -0.584846 90.521800 -6.492310 89.319800 -3.662850 12.366400 15.735700 0.000005 -0.000001 89.178500 75.252200 -89.262100 8.984550 -0.406207 -0.000000 21.726600 -0.421921 -0.086765 16.377300 -0.000001 -0.000001 10.899300 -4.410470 0.510646 6.456720 -0.000001 -0.000000 -10.124900 -3.910640 -0.589338 12.994200 -0.242716 4.980390 -89.785100 -0.743656 -73.881100 5.348090 -0.000007 -0.000001 -74.335600 -22.774000 -83.502100 24.328600 0.000019 0.000005 43.448200 -12.389900 -102.763000 22.291600 -0.000001 0.000005 9.814340 4.917080 9.035290 12.994500 -0.242716 -4.980390 89.246200 8.507620 -84.917600 -5.348130 -0.000001 -0.000004 -54.657200 34.962400 -28.005700 -24.328900 0.000322 -0.000009 1.502040 3.705020 -22.100600 -22.291500 -0.000108 -0.000004 17.060800 5.414680 -3.420770 -2.192480 -6.469440 -0.000000 -174.478000 -11.463300 -3.476700 39.081100 -0.000007 -0.000012 -0.154034 0.230702 33.730400 40.985400 -0.000006 -0.000013 0.574719 6.074560 -67.725200 11.754300 -0.000000 0.000003 -0.000055 -0.000617 -16.601500 -2.192510 6.469440 -0.000001 175.037000 19.584100 177.508000 -39.081100 -0.002282 -0.040193 -0.153345 0.240298 33.098700 -40.985400 0.000008 0.000006 4.106170 13.571300 -68.153500 -11.754300 -0.000006 -0.000006 -0.003724 -0.048541 -18.547500
0.000000 0.000000 0.000000 0.000000 0.000000 -0.000000 -0.577098 90.519700 -6.490250 89.301900 -3.645160 12.356700 15.735700 0.000005 -0.000001 89.158500 75.248500 -89.250100 8.984550 -0.406207 -0.000000 21.733800 -0.433084 -0.100941 16.377300 -0.000001 -0.000001 10.879500 -4.385690 0.479706 6.456720 -0.000001 -0.000000 -10.103200 -3.896050 -0.566109 12.994200 -0.242716 4.980390 -89.786300 -0.740093 -73.890000 5.348090 -0.000007 -0.000001 -74.341700 -22.759700 -83.560300 24.328600 0.000019 0.000005 43.334200 -12.387400 -102.810000 22.291600 -0.000001 0.000005 9.880800 4.917540 9.026140 12.994500 -0.242716 -4.980390 89.242000 8.533070 -84.904700 -5.348130 -0.000001 -0.000004 -54.712000 34.883800 -27.936400 -24.328900 0.000322 -0.000009 1.517460 3.740310 -22.115400 -22.291500 -0.000108 -0.000004 17.037500 5.414250 -3.406310 -2.192480 -6.469440 -0.000000 -174.470000 -11.452900 -3.500860 39.081100 -0.000007 -0.000012 -0.157166 0.235194 33.752700 40.985400 -0.000006 -0.000013 0.580134 6.064060 -67.734200 11.754300 -0.000000 0.000003 -0.000058 -0.000648 -16.602600 -2.192510 6.469440 -0.000001 175.041000 19.588300 177.503000 -39.081100 -0.002282 -0.040193 -0.155868 0.244177 33.097700 -40.985400 0.000008 0.000006 4.091900 13.576500 -68.150900 -11.754300 -0.000006 -0.000006 -0.003944 -0.050856 -18.641800
0.000000 0.000000 0.000000 0.000000 0.000000 -0.000000 -0.565773 90.521800 -6.482740 89.307400 -3.663190 12.363400 15.735700 0.000005 -0.000001 89.183200 75.251800 -89.289500 8.984550 -0.406207 -0.000000 21.727300 -0.422362 -0.132451 16.377300 -0.000001 -0.000001 10.888200 -4.385030 0.449683 6.456720 -0.000001 -0.000000 -10.042700 -3.903560 -0.550351 12.994200 -0.242716 4.980390 -89.776900 -0.773067 -73.900900 5.348090 -0.000007 -0.000001 -74.374900 -22.735500 -83.551400 24.328600 0.000019 0.000005 43.197300 -12.355700 -102.838000 22.291600 -0.000001 0.000005 9.951440 4.918330 9.010110 12.994500 -0.242716 -4.980390 89.239300 8.547400 -84.895400 -5.348130 -0.000001 -0.000004 -54.708600 34.907200 -27.887500 -24.328900 0.000322 -0.000009 1.503950 3.709290 -22.102900 -22.291500 -0.000108 -0.000004 17.022000 5.414320 -3.408760 -2.192480 -6.469440 -0.000000 -174.475000 -11.490200 -3.469270 39.081100 -0.000007 -0.000012 -0.154146 0.230787 33.739900 40.985400 -0.000006 -0.000013 0.596609 6.087680 -67.746100 11.754300 -0.000000 0.000003 -0.000056 -0.000627 -16.601900 -2.192510 6.469440 -0.000001 175.034000 19.586400 177.516000 -39.081100 -0.002282 -0.040193 -0.152435 0.238983 33.090000 -40.985400 0.000008 0.000006 4.087190 13.565200 -68.148700 -11.754300 -0.000006 -0.000006 -0.003901 -0.050404 -18.623400
0.000000 0.000000 0.000000 0.000000 0.000000 -0.000000 -0.563340 90.522400 -6.471160 89.275700 -3.641330 12.322900 15.735700 0.000005 -0.000001 89.140000 75.254400 -89.244900 8.984550 -0.406207 -0.000000 21.721800 -0.443768 -0.125536 16.377300 -0.000001 -0.000001 10.856200 -4.389700 0.424126 6.456720 -0.000001 -0.000000 -10.015900 -3.905220 -0.549274 12.994200 -0.242716 4.980390 -89.780900 -0.757053 -73.856300 5.348090 -0.000007 -0.000001 -74.411500 -22.702400 -83.632900 24.328600 0.000019 0.000005 43.297400 -12.315100 -102.754000 22.291600 -0.000001 0.000005 9.893640 4.917650 9.023740 12.994500 -0.242716 -4.980390 89.241700 8.531510 -84.901700 -5.348130 -0.000001 -0.000004 -54.695700 34.895400 -27.924700 -24.328900 0.000322 -0.000009 1.518790 3.762360 -22.015800 -22.291500 -0.000108 -0.000004 16.955700 5.415320 -3.441920 -2.192480 -6.469440 -0.000000 -174.458000 -11.461500 -3.522540 39.081100 -0.000007 -0.000012 -0.156956 0.234849 33.756100 40.985400 -0.000006 -0.000013 0.593324 6.069870 -67.750600 11.754300 -0.000000 0.000003 -0.000064 -0.000704 -16.604800 -2.192510 6.469440 -0.000001 175.065000 19.596900 177.498000 -39.081100 -0.002282 -0.040193 -0.155279 0.243551 33.068000 -40.985400 0.000008 0.000006 4.073620 13.560800 -68.144200 -11.754300 -0.000006 -0.000006 -0.003838 -0.049746 -18.596600
